<?xml version="1.0" encoding="iso-8859-1"?>
<!-- Generator: Adobe Illustrator 16.0.0, SVG Export Plug-In . SVG Version: 6.00 Build 0)  -->
<!DOCTYPE svg PUBLIC "-//W3C//DTD SVG 1.1//EN" "http://www.w3.org/Graphics/SVG/1.1/DTD/svg11.dtd">
<svg version="1.1" id="Layer_1" xmlns="http://www.w3.org/2000/svg" xmlns:xlink="http://www.w3.org/1999/xlink" x="0px" y="0px"
	 width="512px" height="512px" viewBox="0 0 512 512" style="enable-background:new 0 0 512 512;" xml:space="preserve">
<path d="M345.687,79.841H166.314c-73.336,0-132.999,59.662-132.999,132.998c0,73.338,59.663,133,132.999,133h63.564v70.838
	c0,6.283,3.753,11.898,9.561,14.305c1.888,0.781,3.884,1.178,5.919,1.178c4.138,0,8.013-1.596,10.912-4.5l82.39-81.82h7.026
	c73.336,0,132.998-59.662,132.998-133C478.685,139.503,419.022,79.841,345.687,79.841z M256,308.256
	c-11.227,0-20.357-9.133-20.357-20.357c0-11.226,9.131-20.357,20.357-20.357s20.357,9.132,20.357,20.357
	C276.357,299.123,267.227,308.256,256,308.256z M277.326,211.418c-2.674,1.828-4.523,3.174-5.523,4.021v21.272
	c0,8.712-7.09,15.801-15.801,15.801c-8.715,0-15.803-7.089-15.803-15.801v-22.918c0-15.281,11.152-22.902,19.297-28.467
	c8.789-6.006,14.594-9.973,14.594-22.361c0-9.975-8.113-18.09-18.088-18.09c-9.977,0-18.09,8.115-18.09,18.09
	c0,8.713-7.09,15.801-15.803,15.801s-15.803-7.088-15.803-15.801c0-27.4,22.293-49.692,49.695-49.692
	c27.397,0,49.691,22.292,49.691,49.692C305.693,192.037,287.936,204.169,277.326,211.418z"/>
</svg>
